<svg width="40" height="41" viewBox="0 0 40 41" fill="none" xmlns="http://www.w3.org/2000/svg">
<path d="M40 20.1279C40 13.6118 34.7097 8.25696 28.129 8.25696C25.2903 8.25696 22.7097 9.2247 20.6452 10.9021C22.1935 12.386 23.4194 14.257 24 16.386H23.0323C22.3871 14.515 21.3548 12.8376 19.9355 11.4828C18.5161 12.8376 17.4839 14.515 16.8387 16.386H15.871C16.5161 14.257 17.6774 12.386 19.2258 10.9021C17.1613 9.2247 14.6452 8.25696 11.8065 8.25696C5.29032 8.25696 0 13.6118 0 20.1279C0 26.6441 5.29032 31.9989 11.871 31.9989C14.7097 31.9989 17.2903 30.9666 19.2903 29.3537C17.7419 27.8699 16.5806 25.9989 15.9355 23.8699H16.9032C17.5484 25.7408 18.5806 27.4183 20 28.7731C21.4194 27.4183 22.5161 25.7408 23.0968 23.8699H24.0645C23.4194 25.9989 22.2581 27.8699 20.7097 29.3537C22.7742 31.0312 25.3548 31.9989 28.1935 31.9989C34.7097 31.9989 40 26.6441 40 20.1279Z" fill="#858FA4"/>
<path d="M31.2891 22.9021L32.1278 18.515H33.16L33.2891 18.9666C33.4826 18.7731 33.8052 18.515 34.4503 18.515L34.1278 19.6763C33.8052 19.6763 33.2891 19.6118 32.902 20.9021L32.5149 22.9021H31.2891Z" fill="#1A1A25"/>
<path d="M15.481 17.4182H16.6423L16.3842 18.5795H17.0294L16.8358 19.4827H16.2552L15.9326 21.2247C15.8681 21.5472 15.9326 21.8698 16.5777 21.7408L16.4487 22.7085C16.1906 22.9021 15.8681 22.9021 15.5455 22.9021C15.2874 22.9021 14.3842 22.7085 14.5777 21.5472L15.481 17.4182Z" fill="#1A1A25"/>
<path d="M20.6447 20.9666C20.7737 20.2569 21.0963 18.515 19.0318 18.515C17.0963 18.515 16.8382 20.4505 16.8382 20.7086C16.7737 20.9666 16.7737 22.9021 18.8382 22.9021C19.3544 22.9021 20.064 22.8376 20.3866 22.7086L20.5802 21.8053C20.3866 21.8699 19.7415 21.9344 19.2253 21.9344C18.7737 21.9344 17.9995 21.9344 18.1286 20.9666H20.6447Z" fill="#1A1A25"/>
<path d="M14.3235 19.5473L14.5815 18.644C14.0009 18.4505 13.5493 18.4505 13.4202 18.4505C13.2267 18.4505 11.8073 18.4505 11.6138 19.4828C11.4202 20.3215 11.7428 20.644 12.0009 20.7731C12.4525 20.9666 12.7106 21.1602 12.9686 21.2892C13.2912 21.4182 13.2267 21.9344 12.8396 21.9344C12.646 21.9344 11.8718 21.9989 11.2912 21.8053L11.0977 22.7086C11.6783 22.8376 12.0654 22.8376 12.517 22.8376C12.8396 22.8376 14.2589 22.9021 14.4525 21.6118C14.5815 20.9666 14.2589 20.7086 14.0654 20.515C13.8073 20.386 13.4848 20.1279 13.2267 20.0634C12.9686 19.9344 12.7751 19.5473 13.2267 19.4182C13.4202 19.4828 14.0009 19.4828 14.3235 19.5473Z" fill="#1A1A25"/>
<path d="M6.57964 22.9021L7.61189 17.6118H5.6119L4.19254 20.8376L3.93448 17.6118H2.06351L1.03125 22.9021H2.19254L2.96673 19.0956L3.28931 22.9021H4.38609L6.06351 19.1601L5.35383 22.9021H6.57964Z" fill="#1A1A25"/>
<path d="M7.93298 18.644L7.73943 19.6118C8.06201 19.6118 8.8362 19.4827 9.2233 19.4827C9.61039 19.4827 10.1265 19.4182 9.93297 20.0634C9.61039 20.0634 7.48136 19.7408 7.15878 21.6118C7.02975 22.515 7.80394 22.9666 8.38459 22.9666C8.96523 22.9666 9.15878 22.8376 9.35233 22.7086L9.48136 22.9666H10.5781L11.0297 20.5795C11.1588 19.9989 11.3523 18.5795 9.35233 18.5795C9.09427 18.515 8.70717 18.515 7.93298 18.644Z" fill="#1A1A25"/>
<path d="M27.226 18.8376C26.9035 18.644 26.7099 18.644 26.3228 18.644C25.9357 18.644 25.0325 19.0311 24.9035 20.0634C24.7099 21.3537 25.5486 21.9344 26.7744 21.5473L27.097 22.644C26.7099 22.8376 26.3228 22.9021 25.6777 22.9021C24.4519 22.9021 23.097 21.8053 23.6777 19.5473C24.1293 17.9344 25.5486 17.2892 26.3873 17.3537C27.3551 17.4182 27.7422 17.7408 28.0002 18.0634L27.226 18.8376Z" fill="#1A1A25"/>
<path d="M37.3537 19.0311C37.0956 18.8376 36.9666 18.515 36.4505 18.515C35.8053 18.515 34.7731 18.386 34.1924 20.386C33.8053 21.7408 34.5795 22.9021 35.4182 22.9021C35.8053 22.9021 36.1924 22.7085 36.4505 22.5795L36.5795 22.9021H37.8698L38.9021 17.3537H37.6763L37.3537 19.0311Z" fill="#1A1A25"/>
<path d="M28.0658 18.644L27.8722 19.6118C28.1948 19.6118 28.969 19.4827 29.3561 19.4827C29.7432 19.4827 30.1948 19.4182 30.0658 20.0634C29.7432 20.0634 27.6142 19.7408 27.2916 21.6118C27.1626 22.515 27.9368 22.9666 28.5174 22.9666C29.098 22.9666 29.2916 22.8376 29.4851 22.7086L29.6142 22.9666H30.7109L31.1626 20.5795C31.2916 19.9989 31.4851 18.5795 29.4851 18.5795C29.2916 18.515 28.84 18.515 28.0658 18.644Z" fill="#1A1A25"/>
<path d="M18.1289 20.1279H19.6128C19.6773 19.6763 19.5483 19.3537 19.0966 19.3537C18.5805 19.3537 18.2579 19.6118 18.1289 20.1279Z" fill="#858FA4"/>
<path d="M9.74253 20.9666C9.54899 20.9666 9.09737 20.8376 8.71028 21.0956C8.32318 21.3537 8.19415 21.8053 8.64576 21.9343C9.03286 22.0634 9.54899 21.8053 9.67802 21.4182L9.74253 20.9666Z" fill="#858FA4"/>
<path d="M36.967 20.8376C37.0961 20.4505 37.0316 19.9344 36.9025 19.7408C36.5154 19.2247 35.6767 19.6118 35.4187 20.5795C35.2251 21.2247 35.6122 21.6763 35.9993 21.6763C36.4509 21.6763 36.709 21.3537 36.967 20.8376Z" fill="#858FA4"/>
<path d="M29.9339 20.9666C29.7404 20.9666 29.2888 20.8376 28.9017 21.0956C28.5146 21.3537 28.3856 21.8053 28.8372 21.9343C29.2243 22.0634 29.8049 21.8053 29.8694 21.4182L29.9339 20.9666Z" fill="#858FA4"/>
<path d="M20.6445 22.9022L21.4832 18.5796H22.5155L22.6445 19.0312C22.8381 18.8376 23.1607 18.5796 23.8058 18.5796L23.4832 19.7409C23.2252 19.7409 22.6445 19.6763 22.2574 20.9667L21.8703 22.9667H20.6445" fill="#1A1A25"/>
<path d="M11.8703 8.25696C6.64453 8.25696 2.19292 11.6763 0.644531 16.386H15.9994C16.6445 14.257 17.8058 12.386 19.3542 10.9021C17.2252 9.28922 14.6445 8.25696 11.8703 8.25696Z" fill="#858FA4"/>
<path d="M19.9991 11.5473C18.5798 12.9021 17.5475 14.515 16.9023 16.4505H23.0959C22.4507 14.5796 21.4185 12.9021 19.9991 11.5473Z" fill="#858FA4"/>
<path d="M28.1284 8.25696C25.2897 8.25696 22.709 9.2247 20.6445 10.9021C22.1929 12.386 23.3542 14.257 23.9994 16.386H39.3542C37.8703 11.6763 33.4187 8.25696 28.1284 8.25696Z" fill="#858FA4"/>
</svg>
