<svg width="55" height="21" viewBox="0 0 55 21" fill="none" xmlns="http://www.w3.org/2000/svg">
<path d="M10.5428 4.17126C10.3503 3.78501 10.0457 3.46644 9.66761 3.22722C9.27319 2.98567 8.80759 2.81646 8.27547 2.71611C7.73402 2.61809 7.10855 2.57374 6.38389 2.56674L3.03831 2.56908C2.69057 2.57374 2.34983 2.84447 2.26814 3.18054L0.017144 12.985C-0.0645408 13.3165 0.153674 13.5942 0.501418 13.5942H2.10361C2.45135 13.5942 2.79559 13.3246 2.87261 12.985L3.42223 10.6045C3.49575 10.2731 3.83882 9.99656 4.19007 9.99656H4.64867C6.60794 9.99422 8.12494 9.59396 9.21485 8.79229C10.3106 7.98944 10.8509 6.92871 10.8509 5.61475C10.8497 5.03946 10.7552 4.55635 10.5428 4.17126ZM7.08754 7.37447C6.60327 7.72922 5.92995 7.90659 5.06176 7.90659H4.66967C4.32076 7.90659 4.10722 7.6312 4.18307 7.29512L4.66501 5.21333C4.73269 4.87959 5.08393 4.60303 5.42818 4.60536L5.95329 4.60186C6.56593 4.60186 7.03386 4.70805 7.3466 4.91343C7.65584 5.11647 7.81104 5.43971 7.8087 5.86797C7.81804 6.51912 7.56948 7.01973 7.08754 7.37447Z" fill="#858FA4"/>
<path d="M18.2683 5.57279C17.6638 5.23205 16.7093 5.06168 15.4046 5.06168C14.7593 5.06168 14.1164 5.11185 13.4664 5.21221C12.9868 5.28573 12.9401 5.29973 12.6449 5.36391C12.0357 5.49694 11.94 6.10491 11.94 6.10491L11.744 6.91125C11.6331 7.42587 11.9295 7.40603 12.0532 7.36285C12.3193 7.2835 12.4675 7.20182 13.0113 7.08046C13.5306 6.9626 14.0778 6.87391 14.5119 6.87974C15.1526 6.87974 15.6427 6.94743 15.9694 7.08512C16.2915 7.22515 16.4525 7.46554 16.4525 7.81329L16.4245 8.03967L16.1935 8.18203C15.2844 8.23921 14.6275 8.32323 13.8305 8.43876C13.051 8.54728 12.3671 8.73749 11.7988 8.99771C11.1885 9.26611 10.7358 9.62669 10.4195 10.0853C10.1138 10.5462 9.96094 11.1052 9.96094 11.761C9.96094 12.3783 10.1827 12.8882 10.6132 13.2827C11.0462 13.6701 11.618 13.8591 12.3018 13.8591C12.7347 13.8568 13.0696 13.823 13.3077 13.7658L14.0837 13.4985L14.7407 13.1345L15.3451 12.7354L15.3533 12.747L15.2926 13.0038L15.2891 13.0143V13.0166C15.2238 13.3293 15.4128 13.5861 15.7174 13.6164L15.7232 13.6234H15.7512H16.98H17.211L17.232 13.6141C17.5518 13.5767 17.8517 13.32 17.9217 13.0143L19.0898 7.95799L19.1505 7.54606L19.1785 7.15981C19.1831 6.44332 18.8739 5.91236 18.2683 5.57279ZM15.6847 11.258L15.435 11.5871L14.8048 11.9127C14.5084 12.0329 14.2272 12.0936 13.967 12.0936C13.5726 12.0936 13.2633 12.0364 13.0545 11.9197L12.7452 11.3187C12.7452 10.9932 12.8199 10.7353 12.9798 10.5369L13.6589 10.0748C13.9495 9.97676 14.3042 9.89391 14.715 9.83673C15.0814 9.79122 15.8049 9.70837 15.8994 9.70604L16.0103 9.90091C15.9881 10.0118 15.7827 10.8706 15.6847 11.258Z" fill="#858FA4"/>
<path d="M47.3698 5.57973C46.7619 5.23898 45.8085 5.06744 44.5074 5.06744C43.8621 5.06744 43.2179 5.11762 42.5703 5.22148C42.0895 5.29149 42.0417 5.30666 41.7453 5.36968C41.1373 5.50154 41.0428 6.11184 41.0428 6.11184L40.8467 6.91702C40.737 7.43163 41.0264 7.40829 41.1618 7.36862C41.429 7.28927 41.5726 7.21108 42.1117 7.08506C42.6286 6.96836 43.1806 6.88201 43.6158 6.88435C44.2541 6.88435 44.7443 6.9532 45.0698 7.09089C45.3942 7.23092 45.5529 7.47364 45.5529 7.81789L45.5284 8.0431L45.2997 8.18897C44.3813 8.24381 43.7232 8.32783 42.9344 8.44336C42.1572 8.55188 41.471 8.74092 40.9016 9.00231C40.2936 9.27187 39.835 9.63245 39.5223 10.0922C39.213 10.5532 39.0625 11.1109 39.0625 11.7609C39.0625 12.3829 39.2819 12.8928 39.7183 13.2849C40.1536 13.6712 40.7195 13.8649 41.4034 13.8649C41.8339 13.8602 42.1689 13.8322 42.4081 13.7704L43.1817 13.5066L43.8446 13.1426L44.4444 12.7388L44.4549 12.7516L44.4 13.0107L44.3942 13.0154L44.3965 13.02C44.3242 13.3328 44.5144 13.5918 44.8224 13.6198L44.8248 13.6257H44.8528C45.0547 13.6257 45.7525 13.6257 46.0851 13.6257H46.3114L46.3359 13.6175C46.6522 13.579 46.9509 13.3223 47.0174 13.013L48.189 7.96375L48.2509 7.54949L48.2847 7.16207C48.2859 6.44792 47.9801 5.9193 47.3698 5.57973ZM44.7921 11.265L44.5319 11.5976L43.9076 11.9208C43.6112 12.0398 43.3288 12.1017 43.0732 12.1017C42.666 12.1017 42.3649 12.0433 42.1619 11.9266L41.8491 11.328C41.8491 11.0013 41.925 10.7457 42.0778 10.5438C42.233 10.3536 42.4699 10.1972 42.764 10.0829C43.0511 9.98487 43.4058 9.90551 43.8189 9.846C44.183 9.80049 44.9041 9.71531 44.9975 9.71414L45.1107 9.90901C45.0943 10.0199 44.8878 10.8752 44.7921 11.265Z" fill="#858FA4"/>
<path d="M39.6413 4.20743C39.4406 3.81885 39.1396 3.50494 38.7591 3.25989C38.3694 3.01717 37.9073 2.8468 37.367 2.74878C36.8361 2.65426 36.2024 2.60291 35.4824 2.60175L32.1322 2.60408C31.7833 2.60991 31.4484 2.88064 31.3678 3.21321L29.1145 13.0224C29.0328 13.355 29.2569 13.6304 29.5976 13.6304L31.2021 13.628C31.5429 13.6304 31.8918 13.3573 31.9723 13.0212L32.5149 10.6395C32.5943 10.3081 32.9385 10.0292 33.2851 10.0316H33.7437C35.7053 10.0316 37.2258 9.6278 38.3204 8.82846C39.4021 8.01978 39.9494 6.96138 39.9494 5.64625C39.9436 5.07329 39.8444 4.58902 39.6413 4.20743ZM36.1861 7.41531C35.703 7.76306 35.0285 7.94043 34.165 7.94043H33.7659C33.4216 7.94393 33.1987 7.66387 33.2758 7.33013L33.7612 5.25183C33.8324 4.91926 34.1801 4.64036 34.5267 4.64386L35.046 4.64036C35.6621 4.64386 36.1242 4.74539 36.4393 4.95076C36.7532 5.15614 36.9014 5.47822 36.9049 5.90531C36.9084 6.55645 36.6668 7.05823 36.1861 7.41531Z" fill="#858FA4"/>
<path d="M53.3779 3.29137C53.4514 2.95646 53.2414 2.68457 52.8971 2.68924H51.4618C51.1677 2.68924 50.9028 2.90745 50.7733 3.17585L50.694 3.29954L50.6216 3.61694L48.6157 12.7353L48.5503 13.0154L48.5527 13.0224C48.4861 13.3223 48.6705 13.5486 48.9553 13.5918L48.9798 13.6257H50.4699C50.7617 13.6257 51.0359 13.4039 51.1607 13.1309L51.2378 13.0142L53.3826 3.29254L53.3779 3.29137Z" fill="#858FA4"/>
<path d="M29.1544 5.18415C28.7752 5.18882 27.2337 5.18415 27.2337 5.18415C26.8883 5.18415 26.4448 5.46305 26.2255 5.79562C26.2255 5.79562 23.9313 9.73283 23.7084 10.1284L23.4423 10.1249L22.7282 5.82246C22.6488 5.48405 22.2953 5.19466 21.8553 5.19466L20.42 5.19699C20.0746 5.19699 19.8622 5.47238 19.9404 5.80846C19.9404 5.80846 21.0303 12.0107 21.2485 13.4705C21.3501 14.2757 21.2357 14.4192 21.2357 14.4192L19.8167 16.8907C19.6067 17.2268 19.7199 17.501 20.0641 17.501L21.7235 17.4987C22.0689 17.4987 22.5228 17.2268 22.7282 16.8896L29.1113 6.09319C29.1113 6.09435 29.7251 5.17132 29.1544 5.18415Z" fill="#858FA4"/>
</svg>
