<svg width="40" height="41" viewBox="0 0 40 41" fill="none" xmlns="http://www.w3.org/2000/svg">
<path d="M16.0172 14.1757L13.9844 26.1053H17.2356L19.2702 14.1757H16.0172Z" fill="#858FA4"/>
<path d="M11.2582 14.189L8.07389 22.3247L7.73438 21.0963C7.10637 19.6161 5.32354 17.4904 3.23047 16.1508L6.14221 26.0994L9.58244 26.0935L14.7026 14.1865L11.2582 14.189Z" fill="#858FA4"/>
<path d="M6.49914 15.0428C6.31016 14.3161 5.76243 14.0996 5.08258 14.0736H0.0418113L0 14.3111C3.92273 15.2628 6.51838 17.5557 7.59543 20.3127L6.49914 15.0428Z" fill="#858FA4"/>
<path d="M25.859 16.4627C26.9227 16.446 27.6937 16.6785 28.2924 16.9193L28.5859 17.0573L29.0258 14.4717C28.3819 14.23 27.3726 13.9708 26.1132 13.9708C22.9004 13.9708 20.6359 15.5889 20.6184 17.9077C20.5975 19.6212 22.2314 20.5778 23.4657 21.149C24.7326 21.7343 25.1574 22.1064 25.1515 22.6291C25.1415 23.4277 24.1414 23.7939 23.2073 23.7939C21.9053 23.7939 21.2138 23.6141 20.1459 23.1693L19.7269 22.9786L19.2695 25.6487C20.0305 25.9823 21.4345 26.2692 22.8921 26.2842C26.3097 26.2842 28.5307 24.6854 28.5541 22.2076C28.5684 20.8521 27.7012 19.8177 25.8222 18.9689C24.6849 18.4153 23.9892 18.0474 23.9959 17.4888C23.9959 16.9929 24.5863 16.4627 25.859 16.4627Z" fill="#858FA4"/>
<path d="M37.3672 14.1891H34.8551C34.0749 14.1891 33.4946 14.4015 33.1517 15.1791L28.3242 26.112H31.7385C31.7385 26.112 32.2954 24.6419 32.4217 24.3199C32.7955 24.3199 36.1128 24.3249 36.5853 24.3249C36.6823 24.7414 36.9817 26.112 36.9817 26.112H39.9979L37.3672 14.1891ZM33.3575 21.8781C33.6251 21.1933 34.6528 18.5441 34.6528 18.5441C34.6352 18.5767 34.9179 17.8542 35.0859 17.4052L35.305 18.4337C35.305 18.4337 35.928 21.2819 36.0585 21.8781H33.3575Z" fill="#858FA4"/>
</svg>
