<svg width="30" height="33" viewBox="0 0 30 33" fill="none" xmlns="http://www.w3.org/2000/svg">
<path d="M22.1464 15.8802L19.8047 17.996L21.9191 20.3363L24.2609 18.2205L22.1464 15.8802Z" fill="#858FA4"/>
<path d="M17.4823 17.784L14.3594 20.5951L17.1719 23.7195L20.2948 20.9084L17.4823 17.784Z" fill="#858FA4"/>
<path d="M26.3724 15.1356L24.8125 16.5416L26.2184 18.1015L27.7783 16.6955L26.3724 15.1356Z" fill="#858FA4"/>
<path d="M17.9847 6.22811L15.6406 8.33813L17.7506 10.6822L20.0947 8.57216L17.9847 6.22811Z" fill="#858FA4"/>
<path d="M24.3731 10.4742L22.8164 11.8807L24.2242 13.4389L25.781 12.0324L24.3731 10.4742Z" fill="#858FA4"/>
<path d="M15.2665 12.3712L12.1406 15.1851L14.9531 18.3095L18.079 15.4957L15.2665 12.3712Z" fill="#858FA4"/>
<path d="M13.0307 7.04702L9.90625 9.8595L12.7187 12.9839L15.8431 10.1714L13.0307 7.04702Z" fill="#858FA4"/>
<path d="M20.1351 10.9419L17.7969 13.0524L19.9114 15.3951L22.2496 13.2846L20.1351 10.9419Z" fill="#858FA4"/>
<path d="M22.3685 5.84096L20.8086 7.24692L22.2145 8.8068L23.7744 7.40085L22.3685 5.84096Z" fill="#858FA4"/>
<path d="M24.2103 20.616L21.8672 22.7273L23.9798 25.0719L26.3229 22.9606L24.2103 20.616Z" fill="#858FA4"/>
<path d="M20.1023 23.272L17.0483 26.088L11.8923 20.35L13.3262 19.088L9.71625 15.046L11.1582 13.782L7.49425 9.74396L13.2123 4.59596L15.0283 6.58396L18.0943 3.84796L19.9063 5.72596L21.1143 4.64396C20.8443 4.48796 20.5742 4.34396 20.3002 4.21396C18.5582 3.36195 16.6023 2.88196 14.5423 2.88196C7.30825 2.88196 1.40625 8.78196 1.40625 16.018C1.40625 23.252 7.30825 29.152 14.5423 29.152C16.8923 29.152 19.1063 28.53 21.0163 27.44C21.6463 27.084 22.2202 26.698 22.7442 26.292L20.1023 23.272Z" fill="#858FA4"/>
</svg>
